<?xml version="1.0" encoding="UTF-8"?>
<svg width="882" height="200" version="1.1" viewBox="0 0 882 200" xmlns="http://www.w3.org/2000/svg">
 <g transform="translate(0 -626.5)">
  <rect y="626.5" width="882" height="200" fill="#fff"/>
  <g stroke-width="2" aria-label="BORDEAUX">
   <path d="m290.5 718.9q0-0.8008-0.2734-1.172-0.2734-0.3711-1.387-0.5859t-3.438-0.2148h-4.316v6.191h4.316q1.445 0 2.422-0.1562 0.9766-0.1562 1.504-0.3711 0.5273-0.2344 0.7812-0.6641 0.2734-0.4297 0.332-0.7812 0.0586-0.3516 0.0586-0.9766zm1.309 11.76q0-0.8984-0.2539-1.523-0.2344-0.625-0.6445-0.9961-0.4102-0.3711-1.094-0.5664-0.6836-0.2148-1.406-0.2734-0.7031-0.0781-1.719-0.0781h-5.605v8.848h5.605q1.348 0 2.344-0.1953 0.9961-0.1953 1.504-0.4688 0.5273-0.2734 0.8203-0.6641 0.3125-0.4102 0.3711-0.7227 0.0781-0.3125 0.0781-0.6836zm4.102 2.676q0 0.3906-0.0391 0.7812-0.0391 0.3906-0.2344 1.113-0.1953 0.7031-0.5469 1.328-0.332 0.6055-1.035 1.309-0.7031 0.6836-1.641 1.172t-2.422 0.8203q-1.465 0.3125-3.301 0.3125h-9.707v-27.34h8.418q1.562 0 2.734 0.1172 1.172 0.0977 2.441 0.4688 1.289 0.3711 2.109 1.016 0.8398 0.6445 1.367 1.777 0.5469 1.133 0.5469 2.695v1.27q0 2.891-1.406 4.59 2.715 1.973 2.715 5.898z" style=""/>
   <path d="m330.7 716.4h-0.332q-1.895 0-3.008 0.8398t-1.68 2.852q-0.5469 2.012-0.5469 5.469v1.211q0 4.922 1.27 7.344 1.289 2.402 3.984 2.402h0.3125q2.676-0.0195 3.906-2.402 1.25-2.402 1.25-7.344v-1.25q0-3.457-0.5273-5.449t-1.641-2.832q-1.094-0.8398-2.988-0.8398zm9.258 9.121v1.25q0 2.5-0.332 4.57-0.3125 2.051-0.8594 3.457-0.5273 1.406-1.309 2.48-0.7617 1.074-1.562 1.699-0.7812 0.6055-1.738 0.9961-0.957 0.3906-1.777 0.5078-0.8008 0.1367-1.68 0.1367h-0.3125q-0.8789 0-1.699-0.1367-0.8203-0.1172-1.797-0.5078-0.957-0.3906-1.777-1.016-0.8008-0.625-1.582-1.699-0.7617-1.074-1.309-2.48-0.5273-1.406-0.8594-3.457t-0.332-4.551v-1.211q0-1.836 0.1562-3.379 0.1562-1.543 0.5273-3.105 0.3906-1.562 1.074-2.734 0.7031-1.191 1.699-2.129 1.016-0.9375 2.5-1.426 1.484-0.4883 3.379-0.4883h0.332q1.895 0 3.379 0.5078 1.504 0.4883 2.5 1.426t1.68 2.129q0.6836 1.172 1.035 2.734 0.3711 1.562 0.5078 3.086 0.1562 1.504 0.1562 3.34z" style=""/>
   <path d="m383.9 721.8q0 0.4102-0.0391 0.8203-0.0391 0.3906-0.1758 0.9766-0.1367 0.5859-0.3711 1.094-0.2344 0.5078-0.6836 1.094t-1.055 1.035q-0.5859 0.4492-1.504 0.8398-0.8984 0.3906-2.031 0.6055l7.891 11.95h-4.902l-7.715-11.68h-4.238v11.68h-4.102v-27.34h9.707q2.637 0 4.434 0.4297 1.816 0.4102 2.852 1.289 1.055 0.8789 1.484 2.07 0.4492 1.172 0.4492 2.852zm-9.219 2.637q2.09 0 3.223-0.3125t1.504-0.8398q0.3906-0.5469 0.3906-1.484v-2.285q0-0.4883-0.0781-0.8008-0.0781-0.332-0.3711-0.6836-0.293-0.3711-0.8398-0.5664-0.5274-0.2148-1.504-0.3516-0.957-0.1367-2.324-0.1367h-5.605v7.461z" style=""/>
   <path d="m418.2 716.9h-5.117v19.14h5.117q0.5469 0 1.016-0.0586 0.4688-0.0781 1.055-0.293 0.6055-0.2148 1.074-0.5859 0.4688-0.3711 0.9375-1.035 0.4883-0.6836 0.8008-1.582 0.332-0.8984 0.5273-2.227 0.1953-1.348 0.1953-3.008v-1.895q0-3.301-0.6055-5.137-0.5859-1.855-1.777-2.578-1.172-0.7422-3.223-0.7422zm9.707 8.457v1.895q0 2.266-0.3516 4.16-0.332 1.875-0.8984 3.184-0.5469 1.309-1.348 2.324-0.8008 0.9961-1.66 1.602-0.8398 0.5859-1.836 0.9766-0.9766 0.3711-1.855 0.5078-0.8594 0.1367-1.758 0.1367h-9.219v-27.34h9.219q2.266 0 3.984 0.6445 1.719 0.625 2.793 1.719t1.738 2.734q0.6836 1.621 0.9375 3.418 0.2539 1.797 0.2539 4.043z" style=""/>
   <path d="m457.1 727.2v8.828h14.82v4.121h-18.93v-27.34h18.93v4.102h-14.82v6.191h11.68v4.102z" style=""/>
   <path d="m503.1 731.5h6.66l-3.34-10.49zm-7.012 8.652 8.789-27.83h3.086l8.809 27.83h-4.258l-1.445-4.551h-9.277l-1.445 4.551z" style=""/>
   <path d="m545 732.4q0 1.777 1.309 2.949 1.309 1.172 3.848 1.172h0.4492q2.539 0 3.828-1.152 1.289-1.172 1.289-2.969v-19.61h4.102v19.61q0 1.641-0.6055 3.125-0.6055 1.465-1.738 2.617-1.133 1.133-2.91 1.816-1.777 0.6641-3.965 0.6641h-0.4492q-2.168 0-3.945-0.6641-1.777-0.6836-2.93-1.816-1.152-1.133-1.777-2.617-0.6055-1.484-0.6055-3.125v-19.61h4.102z" style=""/>
   <path d="m583.9 740.2 8.164-13.67-8.164-13.67h4.785l5.762 9.668 5.781-9.668h4.785l-8.164 13.67 8.164 13.67t-4.785 0l-5.781-9.668-5.762 9.668t-4.785 0z" style=""/>
  </g>
 </g>
</svg>
